<svg id="svg" version="1.1" width="400" height="400" viewBox="0 0 400 400" xmlns="http://www.w3.org/2000/svg" xmlns:xlink="http://www.w3.org/1999/xlink" ><g id="svgg"><path id="path0" d="M156.000 1.000 L 156.000 2.000 149.426 2.000 C 141.455 2.000,140.800 2.181,140.800 4.390 L 140.800 6.000 136.026 6.000 C 129.930 6.000,129.200 6.256,129.200 8.390 L 129.200 10.000 124.216 10.000 C 118.773 10.000,117.600 10.474,117.600 12.675 C 117.600 13.553,117.458 13.600,114.826 13.600 C 110.801 13.600,110.000 13.997,110.000 15.990 L 110.000 17.600 106.464 17.600 C 102.699 17.600,102.000 18.032,102.000 20.361 C 102.000 20.967,101.549 21.122,99.220 21.317 C 95.575 21.623,94.800 22.057,94.800 23.792 C 94.800 25.136,94.771 25.158,92.900 25.278 L 91.000 25.400 90.878 27.300 L 90.756 29.200 87.242 29.200 C 83.480 29.200,82.800 29.632,82.800 32.019 C 82.800 32.615,82.524 32.800,81.633 32.800 C 79.572 32.800,79.200 33.140,79.200 35.021 L 79.200 36.756 77.300 36.878 L 75.400 37.000 75.278 38.900 L 75.156 40.800 72.194 40.800 C 68.934 40.800,67.600 41.577,67.600 43.475 C 67.600 44.262,67.395 44.400,66.229 44.400 C 64.492 44.400,63.600 45.285,63.600 47.006 C 63.600 48.306,63.539 48.358,61.900 48.477 C 60.208 48.599,60.199 48.608,60.077 50.300 L 59.954 52.000 58.220 52.000 C 56.303 52.000,56.000 52.359,56.000 54.633 C 56.000 55.922,55.922 56.000,54.633 56.000 C 52.359 56.000,52.000 56.303,52.000 58.220 L 52.000 59.954 50.300 60.077 C 48.608 60.199,48.599 60.208,48.477 61.900 C 48.358 63.539,48.306 63.600,47.006 63.600 C 45.285 63.600,44.400 64.492,44.400 66.229 C 44.400 67.395,44.262 67.600,43.475 67.600 C 41.577 67.600,40.800 68.934,40.800 72.194 L 40.800 75.156 38.900 75.278 L 37.000 75.400 36.878 77.300 L 36.756 79.200 35.021 79.200 C 33.103 79.200,32.800 79.559,32.800 81.833 C 32.800 83.024,32.672 83.200,31.800 83.200 C 29.914 83.200,29.200 84.458,29.200 87.778 L 29.200 90.756 27.300 90.878 L 25.400 91.000 25.278 92.900 C 25.158 94.771,25.136 94.800,23.792 94.800 C 22.057 94.800,21.623 95.575,21.317 99.220 C 21.122 101.549,20.967 102.000,20.361 102.000 C 18.032 102.000,17.600 102.699,17.600 106.464 L 17.600 110.000 15.990 110.000 C 13.997 110.000,13.600 110.801,13.600 114.826 C 13.600 117.458,13.553 117.600,12.675 117.600 C 10.474 117.600,10.000 118.773,10.000 124.216 L 10.000 129.200 8.390 129.200 C 6.256 129.200,6.000 129.930,6.000 136.026 L 6.000 140.800 4.390 140.800 C 2.181 140.800,2.000 141.455,2.000 149.426 L 2.000 156.000 1.000 156.000 L 0.000 156.000 0.000 200.200 L 0.000 244.400 1.000 244.400 L 2.000 244.400 2.000 251.026 C 2.000 258.524,2.160 259.088,4.382 259.444 L 5.940 259.693 6.070 265.014 C 6.216 270.989,6.140 270.788,8.367 271.086 L 10.000 271.305 10.000 276.224 C 10.000 281.658,10.287 282.400,12.389 282.400 L 13.520 282.400 13.660 285.967 C 13.820 290.051,13.790 289.994,15.967 290.286 L 17.600 290.505 17.600 293.773 C 17.600 297.438,17.903 298.000,19.880 298.000 C 21.151 298.000,21.200 298.059,21.200 299.580 C 21.200 303.439,21.921 305.178,23.633 305.452 C 25.126 305.690,25.200 305.772,25.200 307.171 C 25.200 309.036,25.776 309.600,27.680 309.600 L 29.200 309.600 29.200 312.920 C 29.200 316.641,29.498 317.200,31.480 317.200 C 32.742 317.200,32.800 317.267,32.800 318.720 C 32.800 320.631,33.364 321.200,35.258 321.200 L 36.756 321.200 36.878 323.100 L 37.000 325.000 38.900 325.122 L 40.800 325.244 40.800 328.193 C 40.800 331.527,41.304 332.400,43.229 332.400 C 44.239 332.400,44.401 332.552,44.405 333.500 C 44.418 335.958,44.759 336.400,46.647 336.400 L 48.400 336.400 48.400 338.153 C 48.400 340.005,48.853 340.381,51.100 340.395 C 51.874 340.399,52.000 340.612,52.000 341.920 C 52.000 343.830,52.564 344.400,54.457 344.400 C 55.932 344.400,55.956 344.425,56.077 346.100 L 56.200 347.800 58.100 347.922 L 60.000 348.044 60.000 349.775 C 60.000 351.602,60.461 351.981,62.700 351.995 C 63.363 351.999,63.601 352.237,63.605 352.900 C 63.619 355.147,63.995 355.600,65.847 355.600 C 67.507 355.600,67.600 355.660,67.600 356.738 C 67.600 358.516,68.679 359.166,72.111 359.456 L 75.161 359.714 75.280 361.557 L 75.400 363.400 77.300 363.522 L 79.200 363.644 79.200 365.400 L 79.200 367.156 81.086 367.278 C 82.869 367.393,82.986 367.473,83.243 368.737 C 83.630 370.645,83.887 370.785,87.507 371.065 L 90.761 371.316 90.880 373.158 L 91.000 375.000 92.900 375.122 C 94.684 375.236,94.800 375.312,94.800 376.360 C 94.800 378.196,95.872 378.800,99.131 378.800 L 102.000 378.800 102.000 379.924 C 102.000 382.101,102.782 382.585,106.547 382.740 L 109.958 382.880 110.079 384.540 L 110.200 386.200 113.900 386.315 L 117.600 386.430 117.600 387.553 C 117.600 389.661,118.652 390.102,124.199 390.315 L 129.200 390.508 129.200 391.990 C 129.200 394.061,130.160 394.400,136.019 394.400 L 140.800 394.400 140.800 395.567 C 140.800 398.063,140.597 398.000,148.643 398.000 L 156.000 398.000 156.000 399.000 L 156.000 400.000 200.200 400.000 L 244.400 400.000 244.400 399.009 L 244.400 398.018 251.700 397.909 L 259.000 397.800 259.377 396.100 L 259.754 394.400 264.503 394.400 C 270.011 394.400,270.703 394.150,271.040 392.040 L 271.286 390.505 276.227 390.314 C 281.645 390.106,282.284 389.855,282.477 387.870 L 282.600 386.600 286.200 386.400 L 289.800 386.200 290.177 384.500 L 290.554 382.800 293.251 382.800 C 297.196 382.800,298.000 382.396,298.000 380.410 L 298.000 378.800 300.925 378.800 C 304.199 378.800,305.600 378.016,305.600 376.184 C 305.600 375.311,305.772 375.200,307.120 375.200 C 309.022 375.200,309.600 374.636,309.600 372.779 L 309.600 371.317 312.669 371.058 C 316.122 370.766,317.200 370.119,317.200 368.338 C 317.200 367.260,317.293 367.200,318.957 367.200 C 320.857 367.200,321.200 366.832,321.200 364.789 C 321.200 363.707,321.304 363.637,323.100 363.522 L 325.000 363.400 325.120 361.557 L 325.239 359.714 328.278 359.457 C 331.744 359.164,332.305 358.845,332.477 357.070 C 332.592 355.885,332.720 355.787,334.400 355.600 C 336.195 355.401,336.200 355.396,336.323 353.700 C 336.442 352.061,336.494 352.000,337.794 352.000 C 339.509 352.000,340.400 351.109,340.400 349.393 C 340.400 348.067,340.433 348.042,342.300 347.922 L 344.200 347.800 344.322 346.122 C 344.443 344.460,344.460 344.443,346.122 344.322 L 347.800 344.200 347.922 342.300 C 348.042 340.433,348.067 340.400,349.393 340.400 C 351.109 340.400,352.000 339.509,352.000 337.794 C 352.000 336.494,352.061 336.442,353.700 336.323 C 355.396 336.200,355.401 336.195,355.600 334.400 C 355.787 332.720,355.885 332.592,357.070 332.477 C 358.845 332.305,359.164 331.744,359.457 328.278 L 359.714 325.239 361.557 325.120 L 363.400 325.000 363.522 323.100 C 363.637 321.304,363.707 321.200,364.789 321.200 C 366.832 321.200,367.200 320.857,367.200 318.957 C 367.200 317.293,367.260 317.200,368.338 317.200 C 370.119 317.200,370.766 316.122,371.058 312.669 L 371.317 309.600 372.779 309.600 C 374.636 309.600,375.200 309.022,375.200 307.120 C 375.200 305.772,375.311 305.600,376.184 305.600 C 378.016 305.600,378.800 304.199,378.800 300.925 L 378.800 298.000 380.410 298.000 C 382.396 298.000,382.800 297.196,382.800 293.251 L 382.800 290.554 384.500 290.177 L 386.200 289.800 386.400 286.200 L 386.600 282.600 387.870 282.477 C 389.855 282.284,390.106 281.645,390.314 276.227 L 390.505 271.286 392.040 271.040 C 394.150 270.703,394.400 270.011,394.400 264.503 L 394.400 259.754 396.100 259.377 L 397.800 259.000 397.909 251.700 L 398.018 244.400 399.009 244.400 L 400.000 244.400 400.000 200.200 L 400.000 156.000 399.000 156.000 L 398.000 156.000 398.000 148.643 C 398.000 140.597,398.063 140.800,395.567 140.800 L 394.400 140.800 394.400 136.019 C 394.400 130.160,394.061 129.200,391.990 129.200 L 390.508 129.200 390.315 124.199 C 390.102 118.652,389.661 117.600,387.553 117.600 L 386.430 117.600 386.315 113.900 L 386.200 110.200 384.540 110.079 L 382.880 109.958 382.740 106.547 C 382.585 102.782,382.101 102.000,379.924 102.000 L 378.800 102.000 378.800 99.062 C 378.800 95.794,378.215 94.800,376.290 94.800 C 375.326 94.800,375.234 94.651,375.122 92.900 L 375.000 91.000 373.158 90.880 L 371.316 90.761 371.065 87.507 C 370.785 83.887,370.645 83.630,368.737 83.243 C 367.473 82.986,367.393 82.869,367.278 81.086 L 367.156 79.200 365.400 79.200 L 363.644 79.200 363.522 77.300 L 363.400 75.400 361.557 75.280 L 359.714 75.161 359.456 72.111 C 359.166 68.679,358.516 67.600,356.738 67.600 C 355.660 67.600,355.600 67.507,355.600 65.847 C 355.600 63.995,355.147 63.619,352.900 63.605 C 352.237 63.601,351.999 63.363,351.995 62.700 C 351.981 60.461,351.602 60.000,349.775 60.000 L 348.044 60.000 347.922 58.100 L 347.800 56.200 346.100 56.077 C 344.425 55.956,344.400 55.932,344.400 54.457 C 344.400 52.564,343.830 52.000,341.920 52.000 C 340.612 52.000,340.399 51.874,340.395 51.100 C 340.381 48.853,340.005 48.400,338.153 48.400 L 336.400 48.400 336.400 46.647 C 336.400 44.759,335.958 44.418,333.500 44.405 C 332.552 44.401,332.400 44.239,332.400 43.229 C 332.400 41.304,331.527 40.800,328.193 40.800 L 325.244 40.800 325.122 38.900 L 325.000 37.000 323.100 36.878 L 321.200 36.756 321.200 35.258 C 321.200 33.364,320.631 32.800,318.720 32.800 C 317.396 32.800,317.200 32.680,317.200 31.870 C 317.200 30.064,315.670 29.200,312.474 29.200 L 309.600 29.200 309.600 27.680 C 309.600 25.776,309.036 25.200,307.171 25.200 C 305.772 25.200,305.690 25.126,305.452 23.633 C 305.178 21.921,303.439 21.200,299.580 21.200 C 298.059 21.200,298.000 21.151,298.000 19.880 C 298.000 17.903,297.438 17.600,293.773 17.600 L 290.505 17.600 290.286 15.967 C 289.994 13.790,290.051 13.820,285.967 13.660 L 282.400 13.520 282.400 12.389 C 282.400 10.287,281.658 10.000,276.224 10.000 L 271.305 10.000 271.086 8.367 C 270.788 6.140,270.989 6.216,265.014 6.070 L 259.693 5.940 259.444 4.382 C 259.088 2.160,258.524 2.000,251.026 2.000 L 244.400 2.000 244.400 1.000 L 244.400 0.000 200.200 0.000 L 156.000 0.000 156.000 1.000 M254.480 109.891 C 253.521 110.009,253.056 110.327,252.780 111.053 C 252.280 112.369,252.288 126.854,252.790 128.174 L 253.180 129.200 238.267 129.200 C 222.128 129.200,222.256 129.183,221.666 131.389 C 221.425 132.292,221.050 132.639,220.106 132.832 C 217.990 133.265,215.467 135.150,214.602 136.944 C 213.722 138.772,213.191 158.210,213.799 166.328 L 214.080 170.070 216.047 172.048 C 218.966 174.982,218.409 174.897,236.200 175.106 L 252.200 175.295 252.086 184.828 L 251.972 194.361 234.486 194.481 C 215.497 194.610,216.111 194.537,214.463 196.863 C 213.856 197.721,213.790 201.873,213.686 246.100 L 213.573 294.400 194.386 294.400 L 175.200 294.400 175.200 245.276 C 175.200 203.498,175.115 196.037,174.633 195.376 C 174.094 194.640,173.400 194.594,161.033 194.484 L 148.000 194.369 148.000 184.677 L 148.000 174.985 154.900 175.133 C 175.964 175.584,175.200 176.415,175.200 153.049 L 175.200 136.489 176.539 136.238 C 178.289 135.910,178.800 134.744,178.800 131.079 C 178.800 128.277,178.833 128.181,179.968 127.678 C 180.610 127.394,181.309 126.675,181.522 126.081 C 181.735 125.486,182.244 124.693,182.654 124.319 C 183.556 123.495,185.025 122.031,185.819 121.166 C 186.138 120.818,186.400 119.783,186.400 118.866 L 186.400 117.200 191.218 117.200 C 196.427 117.200,198.000 116.555,198.000 114.418 C 198.000 113.684,198.249 113.600,200.413 113.600 C 204.012 113.600,205.600 112.810,205.600 111.020 L 205.600 109.600 230.700 109.664 C 244.505 109.699,255.206 109.801,254.480 109.891 " stroke="none" fill="#249454" fill-rule="evenodd"></path><path id="path1" d="" stroke="none" fill="#289454" fill-rule="evenodd"></path><path id="path2" d="" stroke="none" fill="#289454" fill-rule="evenodd"></path><path id="path3" d="" stroke="none" fill="#289454" fill-rule="evenodd"></path><path id="path4" d="" stroke="none" fill="#289454" fill-rule="evenodd"></path></g></svg>